<svg width="31" height="59" viewBox="0 0 31 59" fill="none" xmlns="http://www.w3.org/2000/svg">
<path d="M12.5033 0C12.9445 0.212106 13.1329 0.557912 13.1712 1.07126C13.321 3.06384 13.5088 5.05339 13.6828 7.04377C13.8552 9.01875 14.0332 10.9934 14.1986 12.969C14.3769 15.1016 14.5767 17.2331 14.7049 19.369C14.8138 21.1924 14.2564 22.8405 13.0849 24.1957C12.4068 24.9798 12.1622 25.788 12.1926 26.8265C12.26 29.1256 12.2192 31.4282 12.2046 33.7292C12.2009 34.0232 12.1314 34.3124 12.0013 34.574C9.92307 38.6357 7.8365 42.6927 5.74158 46.7452C5.66164 46.8979 5.54734 47.0478 5.52443 47.2093C5.49778 47.3917 5.50365 47.6305 5.60036 47.762C5.67363 47.8618 5.94673 47.9078 6.07089 47.8464C6.53476 47.6156 7.00343 47.3719 7.41748 47.0596C10.0931 45.0464 12.1926 42.48 13.978 39.6299C14.6385 38.5754 15.2172 37.4657 15.8143 36.3699C16.259 35.554 16.3951 34.6643 16.3864 33.7311C16.3832 33.3892 16.4753 33.0222 16.612 32.7077C16.8673 32.1206 17.1715 31.5539 17.4913 31.0001C17.5736 30.8568 17.7844 30.7044 17.936 30.7039C21.9032 30.6882 25.8702 30.692 29.8375 30.694C29.8961 30.694 29.9548 30.7121 30.0816 30.733C29.9873 30.9179 29.9108 31.0769 29.8266 31.2315C27.4713 35.5695 25.1139 39.9056 22.7545 44.2398C22.5728 44.5724 22.5819 44.8063 22.7785 45.1287C25.4347 49.4847 28.0822 53.8461 30.721 58.2129C30.8076 58.3557 30.8876 58.5029 31 58.6996C30.8028 58.7095 30.6579 58.723 30.5132 58.7232C26.6832 58.7232 22.8534 58.7175 19.0236 58.7342C18.6466 58.7359 18.459 58.5953 18.2775 58.2784C16.3947 55.0036 14.5034 51.7338 12.6037 48.469C12.5118 48.3103 12.4132 48.1557 12.2139 48.0088V48.491C12.2139 51.6272 12.2139 54.7634 12.2139 57.8996C12.2139 58.7098 11.9291 59 11.1356 59C8.45028 59 5.76484 59 3.07932 59C2.34128 59 2.05752 58.7153 2.03328 57.9546C2.02715 57.7656 2.03115 57.5763 2.03115 57.3871C2.03115 46.7015 2.03186 36.0158 2.03328 25.33C2.03328 24.9602 1.99598 24.6386 1.7362 24.3308C0.2119 22.5253 -0.197884 20.4078 0.0818768 18.0741C0.278242 16.435 0.378691 14.7836 0.522301 13.1379C0.693 11.1793 0.863965 9.22095 1.0352 7.26276C1.20332 5.30291 1.37144 3.34307 1.52571 1.38212C1.57127 0.80248 1.60564 0.238791 2.24776 0.00192593H2.52246C3.00791 0.230263 3.12408 0.624487 3.09424 1.15351C2.99965 2.83468 2.9477 4.51832 2.86963 6.20058C2.79982 7.70843 2.71376 9.216 2.64129 10.7258C2.53631 12.8793 2.42654 15.0325 2.33968 17.1869C2.31037 17.9087 2.77345 18.4411 3.3668 18.4502C3.94098 18.459 4.44029 17.9104 4.45921 17.2287C4.61294 11.8782 4.77094 6.52713 4.90442 1.17662C4.91828 0.629164 5.06429 0.238241 5.54388 0.000550326H5.81858C6.30669 0.203853 6.46895 0.574418 6.46229 1.11472C6.39906 6.33015 6.34701 11.5458 6.30616 16.7616C6.30376 17.0279 6.30989 17.3002 6.36105 17.5594C6.46309 18.079 6.95521 18.4766 7.40948 18.4433C7.89254 18.4081 8.3215 17.9971 8.39531 17.4763C8.42435 17.2752 8.42195 17.068 8.42195 16.8636C8.37986 11.6324 8.33332 6.40104 8.28234 1.16947C8.27648 0.651997 8.37692 0.249245 8.84186 0.000550326H9.20821C9.70246 0.239616 9.82316 0.674831 9.83541 1.19615C9.92813 5.13125 10.0269 9.06634 10.1317 13.0014C10.1687 14.402 10.2116 15.8028 10.2761 17.2026C10.3118 17.9701 10.8402 18.5101 11.4309 18.4471C12.0514 18.3811 12.4305 17.791 12.3916 17.0202C12.2435 14.0807 12.1081 11.1406 11.9669 8.20086C11.8542 5.85862 11.7538 3.51528 11.6163 1.17442C11.5833 0.613758 11.7338 0.229987 12.2291 0.000550326L12.5033 0Z" fill="#ED3F25"/>
</svg>
